<svg xmlns="http://www.w3.org/2000/svg" width="512" height="512" viewBox="0 0 512 512">
  <!-- Circle Outline -->
  <circle cx="256" cy="256" r="256" fill="none" stroke="black" stroke-width="4" />
  <g transform="translate(256,256) rotate(-36)">
    <!-- White -->
    <path d="M0,0 L0,-256 A256,256 0 0,1 243.366,-79.255 Z" fill="#FFFFFF" stroke="black" stroke-width="2" />
    <!-- Blue -->
    <path d="M0,0 L243.366,-79.255 A256,256 0 0,1 150.796,207.255 Z" fill="#005BB5" stroke="black" stroke-width="2" />
    <!-- Black -->
    <path d="M0,0 L150.796,207.255 A256,256 0 0,1 -150.796,207.255 Z" fill="#333333" stroke="black" stroke-width="2" />
    <!-- Red -->
    <path d="M0,0 L-150.796,207.255 A256,256 0 0,1 -243.366,-79.255 Z" fill="#FF5555" stroke="black" stroke-width="2" />
    <!-- Green -->
    <path d="M0,0 L-243.366,-79.255 A256,256 0 0,1 0,-256 Z" fill="#00AA00" stroke="black" stroke-width="2" />
  </g>
</svg>
